<?xml version="1.0" standalone="no"?>
<!DOCTYPE svg PUBLIC "-//W3C//DTD SVG 20010904//EN"
 "http://www.w3.org/TR/2001/REC-SVG-20010904/DTD/svg10.dtd">
<svg version="1.0" xmlns="http://www.w3.org/2000/svg"
 width="225.000000pt" height="225.000000pt" viewBox="0 0 225.000000 225.000000"
 preserveAspectRatio="xMidYMid meet">
<metadata>
Created by potrace 1.16, written by Peter Selinger 2001-2019
</metadata>
<g transform="translate(0.000000,225.000000) scale(0.100000,-0.100000)"
fill="#000000" stroke="none">
<path d="M975 2239 c-431 -54 -806 -378 -930 -803 -179 -619 207 -1269 835
-1406 508 -111 1020 133 1250 595 186 376 148 831 -98 1161 -251 337 -642 505
-1057 453z m36 -181 c25 -7 52 -26 73 -52 88 -107 103 -114 155 -70 29 24 31
28 25 79 l-7 54 69 -16 c91 -20 184 -56 261 -99 83 -46 88 -57 24 -53 -28 2
-51 3 -51 1 0 -14 134 -263 172 -320 76 -113 80 -126 88 -319 6 -166 8 -174
38 -236 18 -35 49 -83 69 -106 32 -35 45 -42 80 -44 24 -1 43 -5 43 -8 0 -3
-9 -34 -21 -70 -77 -235 -270 -448 -502 -554 -74 -33 -172 -65 -202 -65 -29 0
22 76 106 160 44 44 89 100 104 131 15 29 38 71 51 91 13 21 24 47 24 58 0 36
-76 106 -168 154 -48 24 -122 70 -165 100 -42 31 -90 57 -105 58 -15 2 -64 -1
-109 -6 -80 -8 -83 -7 -140 23 -33 18 -101 65 -153 106 -115 90 -140 129 -140
222 l0 63 64 0 c85 0 115 -12 160 -65 66 -79 93 -51 55 57 l-24 70 35 29 c19
17 79 66 133 110 121 100 134 117 114 156 -29 55 -112 113 -162 113 -22 0 -43
-13 -87 -57 l-58 -57 0 56 c0 37 -5 60 -15 68 -27 22 -16 47 41 93 l55 46 -39
26 -38 25 -59 -20 c-69 -24 -75 -24 -75 -5 0 19 22 30 121 59 98 29 109 30
160 14z m-610 -365 c4 -311 0 -280 46 -373 24 -47 48 -109 54 -138 9 -42 18
-59 52 -87 83 -70 253 -201 304 -233 68 -44 76 -68 51 -157 -10 -39 -21 -80
-25 -93 -12 -46 24 -107 113 -190 46 -43 84 -85 84 -93 0 -8 -16 -48 -35 -88
l-35 -73 -48 7 c-82 12 -224 63 -305 109 -279 159 -450 417 -488 735 -28 231
39 484 178 674 19 26 39 47 44 47 5 0 9 -21 10 -47z"/>
</g>
</svg>
